<svg id="Bold" xmlns="http://www.w3.org/2000/svg" viewBox="0 0 24 24"><title>temperature-thermometer-high</title><path d="M14,4.5a4.5,4.5,0,0,0-9,0v9.438a.248.248,0,0,1-.06.162A5.941,5.941,0,0,0,3.5,18a6,6,0,0,0,12,0,5.941,5.941,0,0,0-1.44-3.9.248.248,0,0,1-.06-.162ZM9.5,22a4,4,0,0,1-2.8-6.856A1,1,0,0,0,7,14.43V4.5a2.5,2.5,0,0,1,5,0v9.93a1,1,0,0,0,.3.714A4,4,0,0,1,9.5,22Z"/><path d="M10.611,16.337a.25.25,0,0,1-.111-.208V5a1,1,0,0,0-2,0V16.129a.25.25,0,0,1-.111.208,2,2,0,1,0,2.222,0Z"/><path d="M19.5,11.5H17a1,1,0,0,0,0,2h2.5a1,1,0,0,0,0-2Z"/><path d="M17,5.5h2.5a1,1,0,0,0,0-2H17a1,1,0,0,0,0,2Z"/><path d="M19.5,7.5H17a1,1,0,0,0,0,2h2.5a1,1,0,0,0,0-2Z"/></svg>